<svg id="Layer_1" enable-background="new 0 0 512.001 512.001" height="512" viewBox="0 0 512.001 512.001" width="512" xmlns="http://www.w3.org/2000/svg"><g><g><path d="m512.001 145.998c0-16.542-13.458-30-30-30h-116v-30.001c0-27.57-22.43-50-50-50h-120c-27.57 0-50 22.43-50 50v30.001h-116.001c-16.542 0-30 13.458-30 30v100.004c0 19.026 7.64 36.294 20.001 48.924v151.079c0 16.542 13.458 30 30 30h412c16.542 0 30-13.458 30-30v-151.08c12.361-12.63 20-29.898 20-48.924zm-346-60.001c0-16.542 13.458-30 30-30h120c16.542 0 30 13.458 30 30v30.001h-20v-30.001c0-5.523-4.477-10-10-10h-120c-5.523 0-10 4.477-10 10v30.001h-20zm140 30.001h-100v-20.001h100zm156 340.007h-412.001c-5.514 0-10-4.486-10-10v-136.771c9.098 4.334 19.269 6.768 29.999 6.768h30.001v14.999c-5.523 0-10 4.477-10 10s4.477 10 10 10v10.001c0 19.299 15.701 35 35 35s35-15.701 35-35v-10.002c5.523 0 10-4.477 10-10s-4.477-10-10-10v-14.999h172v14.999c-5.523 0-10 4.477-10 10s4.477 10 10 10v10.001c0 19.299 15.701 35 35 35s35-15.701 35-35v-10.001c5.523 0 10-4.477 10-10s-4.477-10-10-10v-14.999h30.001c10.73 0 20.901-2.434 29.999-6.768v136.771c.001 5.515-4.485 10.001-9.999 10.001zm-312-125.005h-30v-55h30zm-30 20h30v10.001c0 8.271-6.729 15-15 15s-15-6.729-15-15zm271.999-20h-30v-55h30zm-30 20h30v10.001c0 8.271-6.729 15-15 15s-15-6.729-15-15zm80.002-54.998h-30.001v-20.001c5.523 0 10-4.477 10-10s-4.477-10-10-10h-70.001c-5.523 0-10 4.477-10 10s4.477 10 10 10v20.001h-171.998v-20.001c5.523 0 10-4.477 10-10s-4.477-10-10-10h-70.001c-5.523 0-10 4.477-10 10s4.477 10 10 10v20.001h-30.001c-27.57 0-50-22.43-50-50v-70.003h190.998c5.523 0 10-4.477 10-10s-4.477-10-10-10h-190.998v-10.001c0-5.514 4.486-10 10-10h452.002c5.514 0 10 4.486 10 10v10.001h-191.004c-5.523 0-10 4.477-10 10s4.477 10 10 10h191.004v70.003c-.001 27.57-22.43 50-50 50z"/><path d="m256.001 155.999h-.007c-5.523 0-9.996 4.477-9.996 10s4.48 10 10.003 10 10-4.477 10-10-4.477-10-10-10z"/></g></g></svg>