<svg id="_x31_" enable-background="new 0 0 24 24" height="512" viewBox="0 0 24 24" width="512" xmlns="http://www.w3.org/2000/svg"><g><path d="m20.5 11.82c-.276 0-.5-.224-.5-.5v-8.82c0-.827-.673-1.5-1.5-1.5h-13c-.827 0-1.5.673-1.5 1.5v8.82c0 .276-.224.5-.5.5s-.5-.223-.5-.5v-8.82c0-1.379 1.121-2.5 2.5-2.5h13c1.379 0 2.5 1.121 2.5 2.5v8.82c0 .277-.224.5-.5.5z"/></g><g><path d="m12 15.994c-.397 0-.794-.095-1.156-.283l-10.575-5.518c-.245-.128-.34-.43-.212-.675s.431-.337.675-.212l10.575 5.518c.434.227.953.227 1.387 0l10.575-5.518c.244-.125.548-.034.675.212.128.245.033.547-.212.675l-10.575 5.518c-.363.188-.761.283-1.157.283z"/></g><g><path d="m22 23h-20c-1.103 0-2-.897-2-2v-12.59c0-.748.413-1.428 1.079-1.773l2.19-1.14c.243-.125.547-.034.674.213.128.245.033.547-.213.674l-2.19 1.14c-.333.173-.54.512-.54.886v12.59c0 .552.448 1 1 1h20c.552 0 1-.448 1-1v-12.59c0-.374-.207-.713-.54-.887l-2.19-1.14c-.245-.127-.341-.429-.213-.674.128-.246.433-.337.674-.213l2.19 1.14c.666.346 1.079 1.026 1.079 1.774v12.59c0 1.103-.897 2-2 2z"/></g><g><path d="m17.5 11.074c-.045 0-.09-.006-.135-.019l-11-3.074c-.216-.06-.365-.256-.365-.481v-2c0-.226.151-.423.368-.482l11-3c.153-.04.312-.009.436.085s.196.241.196.397v8.074c0 .156-.073.304-.197.398-.089.067-.195.102-.303.102zm-10.5-3.954 10 2.795v-6.761l-10 2.728z"/></g><g><path d="m17.5 11.5c-.276 0-.5-.224-.5-.5v-9c0-.276.224-.5.5-.5s.5.224.5.5v9c0 .276-.224.5-.5.5z"/></g><g><path d="m6.5 8.5c-.276 0-.5-.224-.5-.5v-3c0-.276.224-.5.5-.5s.5.224.5.5v3c0 .276-.224.5-.5.5z"/></g><g><path d="m10 11.55c-1.103 0-2-.897-2-2 0-.718.382-1.376.997-1.718.24-.131.546-.047.681.194.134.242.047.546-.194.681-.303.168-.484.482-.484.843 0 .552.448 1 1 1s1-.448 1-1c0-.176-.037-.321-.115-.445-.146-.234-.074-.543.16-.689.232-.144.542-.074.689.16.176.282.266.611.266.974 0 1.102-.897 2-2 2z"/></g></svg>