<?xml version="1.0" encoding="utf-8"?>
<!-- Generator: Adobe Illustrator 24.3.0, SVG Export Plug-In . SVG Version: 6.00 Build 0)  -->
<svg version="1.1" id="Слой_1" xmlns="http://www.w3.org/2000/svg" xmlns:xlink="http://www.w3.org/1999/xlink" x="0px" y="0px"
	 viewBox="0 0 1889 386" style="enable-background:new 0 0 1889 386;" xml:space="preserve">
<style type="text/css">
	.st0{fill:#FFFFFF;}
	.st1{fill:#E8B94A;}
</style>
<g>
	<path d="M46.34,61.72h75.98c13.41,0,24.12,2.93,32.13,8.79c7.94,5.93,11.94,14.56,11.94,25.89c0,4.85-1.23,9.25-3.7,13.25
		s-4.93,6.94-7.4,8.86c4.7,2.16,8.86,5.78,12.48,10.94c3.62,5.16,5.39,11.4,5.39,18.65c0,11.33-4.08,20.57-12.33,27.89
		s-18.8,10.94-31.75,10.94H46.34v-77.67h75.98c4.16,0,7.55-0.85,10.09-2.54c2.54-1.7,3.78-4.32,3.78-7.78
		c0-3.54-1.39-6.16-4.08-7.86c-2.77-1.7-6.01-2.54-9.79-2.54H46.34V61.72z M142.97,148.1c0-3-0.62-5.32-1.85-7.09
		c-1.31-1.7-3-2.93-5.09-3.78c-2.16-0.77-4.47-1.16-6.94-1.16H76.55v24.04h52.55C138.35,160.12,142.97,156.11,142.97,148.1z"/>
	<path d="M226.46,186.93V61.72h30.21v98.4h81.45v26.82H226.46z"/>
	<path d="M429.31,181.77c-11.48-5.7-20.73-13.56-27.59-23.5c-6.86-10.02-10.33-21.27-10.33-33.91c0-12.71,3.47-23.96,10.33-33.91
		c6.86-10.02,16.1-17.8,27.59-23.5c11.56-5.78,24.27-8.63,38.22-8.63c14.02,0,26.74,2.85,38.3,8.63
		c11.48,5.7,20.73,13.49,27.59,23.5c6.86,9.94,10.33,21.19,10.33,33.91c0,12.64-3.47,23.89-10.33,33.91
		c-6.86,9.94-16.1,17.8-27.59,23.5c-11.56,5.7-24.27,8.55-38.3,8.55C453.58,190.33,440.87,187.47,429.31,181.77z M490.26,157.04
		c6.94-2.93,12.56-7.17,16.88-12.64c4.24-5.55,6.4-12.25,6.4-20.04c0-7.86-2.16-14.56-6.4-20.04c-4.31-5.55-9.94-9.79-16.88-12.71
		c-7.01-2.93-14.56-4.39-22.73-4.39c-8.09,0-15.64,1.46-22.65,4.47c-7.01,2.93-12.64,7.17-16.88,12.71
		c-4.24,5.55-6.4,12.18-6.4,19.96c0,7.71,2.16,14.33,6.4,19.88s9.86,9.79,16.88,12.79c7.01,2.93,14.56,4.39,22.65,4.39
		C475.7,161.43,483.25,159.96,490.26,157.04z"/>
	<path d="M634,181.77c-11.56-5.78-20.65-13.56-27.2-23.58c-6.55-9.94-9.79-21.19-9.79-33.83s3.24-23.96,9.63-33.91
		c6.47-9.94,15.33-17.8,26.74-23.5c11.4-5.78,24.5-8.63,39.45-8.63c9.86,0,20.11,2.24,30.75,6.63c10.56,4.39,19.19,10.4,25.89,17.88
		l-19.26,22.04c-4.32-5.39-9.71-9.71-16.26-12.87c-6.47-3.24-13.72-4.78-21.65-4.78c-8.86,0-16.72,1.46-23.58,4.47
		c-6.94,2.93-12.33,7.17-16.26,12.71c-3.93,5.47-5.93,12.18-5.93,19.96c0,7.78,2,14.41,5.93,19.88c3.93,5.55,9.32,9.79,16.26,12.79
		c6.86,2.93,14.72,4.39,23.58,4.39c6.32,0,12.95-1.31,19.8-3.93c6.86-2.7,12.79-7.17,17.96-13.49l19.5,22.27
		c-8.55,8.32-17.49,14.33-26.74,18.26c-9.25,3.85-18.8,5.78-28.74,5.78C658.97,190.33,645.56,187.47,634,181.77z"/>
	<path d="M813.04,161.12v25.81h-30.21V61.72h30.21v61.8l64.73-61.8h39.38l-65.58,62.65l65.58,62.57h-36.76l-47.16-45.08
		L813.04,161.12z"/>
	<path d="M1007.41,181.77c-11.56-5.78-20.65-13.56-27.2-23.58c-6.55-9.94-9.79-21.19-9.79-33.83s3.24-23.96,9.63-33.91
		c6.47-9.94,15.33-17.8,26.74-23.5c11.4-5.78,24.5-8.63,39.45-8.63c9.86,0,20.11,2.24,30.75,6.63c10.56,4.39,19.19,10.4,25.89,17.88
		l-19.26,22.04c-4.32-5.39-9.71-9.71-16.26-12.87c-6.47-3.24-13.72-4.78-21.65-4.78c-8.86,0-16.72,1.46-23.58,4.47
		c-6.93,2.93-12.33,7.17-16.26,12.71c-3.93,5.47-5.93,12.18-5.93,19.96c0,7.78,2,14.41,5.93,19.88c3.93,5.55,9.32,9.79,16.26,12.79
		c6.86,2.93,14.72,4.39,23.58,4.39c6.32,0,12.95-1.31,19.8-3.93c6.86-2.7,12.79-7.17,17.95-13.49l19.5,22.27
		c-8.55,8.32-17.49,14.33-26.74,18.26c-9.25,3.85-18.8,5.78-28.74,5.78C1032.38,190.33,1018.97,187.47,1007.41,181.77z"/>
	<path d="M1264.82,186.93v-49.16h-78.37v49.16h-30.21V61.72h30.21v49.24h78.37V61.72h30.21v125.22H1264.82z"/>
	<path d="M1348.3,186.93l62.57-125.22h29.05l62.65,125.22h-32.29l-44.85-92.24l-44.85,92.24H1348.3z"/>
	<path d="M1555.78,186.93V61.72h30.21v125.22H1555.78z"/>
	<path d="M1743.52,186.93l-74.05-87.46v87.46h-30.21V61.72h34.44l74.13,87.46V61.72h30.21v125.22H1743.52z"/>
</g>
<g>
	<path d="M383.6,250.69h32.26c5.69,0,10.24,1.24,13.64,3.73c3.37,2.52,5.07,6.18,5.07,10.99c0,2.06-0.52,3.93-1.57,5.63
		s-2.09,2.94-3.14,3.76c2,0.92,3.76,2.45,5.3,4.64c1.54,2.19,2.29,4.84,2.29,7.92c0,4.81-1.73,8.73-5.23,11.84
		c-3.5,3.11-7.98,4.65-13.48,4.65H383.6v-32.98h32.26c1.77,0,3.21-0.36,4.29-1.08c1.08-0.72,1.6-1.83,1.6-3.3
		c0-1.5-0.59-2.62-1.73-3.34c-1.18-0.72-2.55-1.08-4.16-1.08H383.6V250.69z M424.63,287.37c0-1.28-0.26-2.26-0.79-3.01
		c-0.56-0.72-1.28-1.24-2.16-1.6c-0.92-0.33-1.9-0.49-2.94-0.49h-22.31v10.21h22.31C422.67,292.47,424.63,290.77,424.63,287.37z"/>
	<path d="M478.6,303.89c-3.5-0.95-6.67-2.45-9.45-4.45c-2.78-2.03-4.97-4.65-6.61-7.82c-1.63-3.21-2.45-7-2.45-11.45v-29.48h12.82
		v29.48c0,2.71,0.79,4.97,2.32,6.8c1.54,1.8,3.6,3.17,6.15,4.09c2.52,0.95,5.27,1.41,8.15,1.41c2.91,0,5.66-0.46,8.18-1.34
		c2.55-0.92,4.58-2.26,6.15-4.06c1.54-1.83,2.32-4.12,2.32-6.9v-29.48h12.82v29.48c0,4.45-0.82,8.24-2.45,11.45
		c-1.64,3.17-3.86,5.79-6.64,7.82c-2.78,2-5.92,3.5-9.42,4.45c-3.53,0.95-7.16,1.41-10.96,1.41
		C485.77,305.29,482.11,304.84,478.6,303.89z"/>
	<path d="M557.15,303.86c-3.37-0.95-6.35-2.16-8.9-3.7c-2.58-1.54-4.78-3.37-6.61-5.5l8.05-8.87c1.18,1.31,2.62,2.52,4.29,3.7
		c1.67,1.18,3.7,2.19,6.08,3.08c2.36,0.88,5.04,1.34,8.02,1.34c2.81,0,5.33-0.43,7.56-1.28c2.19-0.82,3.93-1.77,5.14-2.88
		s1.83-2.06,1.83-2.88c0-0.95-0.52-1.67-1.54-2.16c-1.01-0.49-2.49-0.85-4.42-1.08c-1.93-0.23-4.09-0.42-6.51-0.56
		c-2.32-0.13-4.71-0.29-7.16-0.56s-4.84-0.69-7.16-1.28c-2.29-0.59-4.38-1.47-6.28-2.65c-1.9-1.18-3.4-2.75-4.52-4.74
		c-1.14-1.96-1.7-4.45-1.7-7.46c0-2.98,1.01-5.79,3.04-8.41s4.88-4.71,8.57-6.31c3.73-1.6,8.11-2.42,13.22-2.42
		c3.89,0,7.39,0.43,10.44,1.28c3.04,0.88,5.72,2,7.98,3.4c2.29,1.38,4.35,3.08,6.25,5.07l-8.18,8.18c-1.5-1.37-2.98-2.49-4.42-3.4
		c-1.41-0.92-3.04-1.67-4.94-2.22c-1.9-0.59-4.19-0.85-6.94-0.85c-3.47,0-6.58,0.62-9.26,1.9c-2.72,1.28-4.06,2.55-4.06,3.79
		c0,1.11,0.59,2,1.73,2.62c1.18,0.62,2.85,1.11,4.97,1.44s4.51,0.59,7.13,0.82c2.88,0.26,5.82,0.59,8.77,1.05
		c2.98,0.46,5.72,1.18,8.28,2.19c2.55,1.01,4.64,2.52,6.28,4.48c1.63,1.96,2.42,4.58,2.42,7.88c0,3.24-1.05,6.25-3.14,9.06
		c-2.13,2.81-5.14,5.07-9.09,6.8c-3.96,1.7-8.7,2.55-14.23,2.55C564.19,305.29,560.52,304.8,557.15,303.86z"/>
	<path d="M617.28,303.86v-53.16h12.82v53.16H617.28z"/>
	<path d="M696.99,303.86l-31.44-37.13v37.13h-12.82v-53.16h14.62l31.47,37.13v-37.13h12.82v53.16H696.99z"/>
	<path d="M734.29,250.69h47.4v11.38h-47.4V250.69z M775.93,271.6v11.38h-41.65V271.6H775.93z M781.69,292.47v11.38h-47.4v-11.38
		H781.69z"/>
	<path d="M819.83,303.86c-3.37-0.95-6.35-2.16-8.9-3.7c-2.58-1.54-4.78-3.37-6.61-5.5l8.05-8.87c1.18,1.31,2.62,2.52,4.29,3.7
		c1.67,1.18,3.7,2.19,6.09,3.08c2.36,0.88,5.04,1.34,8.01,1.34c2.81,0,5.33-0.43,7.56-1.28c2.19-0.82,3.93-1.77,5.14-2.88
		s1.83-2.06,1.83-2.88c0-0.95-0.52-1.67-1.54-2.16c-1.01-0.49-2.49-0.85-4.42-1.08c-1.93-0.23-4.09-0.42-6.51-0.56
		c-2.32-0.13-4.71-0.29-7.17-0.56s-4.84-0.69-7.17-1.28c-2.29-0.59-4.38-1.47-6.28-2.65c-1.9-1.18-3.4-2.75-4.51-4.74
		c-1.15-1.96-1.7-4.45-1.7-7.46c0-2.98,1.01-5.79,3.04-8.41s4.87-4.71,8.57-6.31c3.73-1.6,8.11-2.42,13.22-2.42
		c3.89,0,7.39,0.43,10.44,1.28c3.04,0.88,5.73,2,7.98,3.4c2.29,1.38,4.35,3.08,6.25,5.07l-8.18,8.18c-1.5-1.37-2.98-2.49-4.42-3.4
		c-1.41-0.92-3.04-1.67-4.94-2.22c-1.9-0.59-4.19-0.85-6.94-0.85c-3.47,0-6.58,0.62-9.26,1.9c-2.71,1.28-4.06,2.55-4.06,3.79
		c0,1.11,0.59,2,1.73,2.62c1.18,0.62,2.85,1.11,4.97,1.44s4.51,0.59,7.13,0.82c2.88,0.26,5.82,0.59,8.77,1.05
		c2.98,0.46,5.73,1.18,8.28,2.19c2.55,1.01,4.65,2.52,6.28,4.48c1.64,1.96,2.42,4.58,2.42,7.88c0,3.24-1.05,6.25-3.14,9.06
		c-2.13,2.81-5.14,5.07-9.1,6.8c-3.96,1.7-8.7,2.55-14.23,2.55C826.87,305.29,823.2,304.8,819.83,303.86z"/>
	<path d="M895.47,303.86c-3.37-0.95-6.35-2.16-8.9-3.7c-2.58-1.54-4.78-3.37-6.61-5.5l8.05-8.87c1.18,1.31,2.62,2.52,4.29,3.7
		c1.67,1.18,3.7,2.19,6.08,3.08c2.36,0.88,5.04,1.34,8.02,1.34c2.81,0,5.33-0.43,7.56-1.28c2.19-0.82,3.93-1.77,5.14-2.88
		s1.83-2.06,1.83-2.88c0-0.95-0.52-1.67-1.54-2.16c-1.01-0.49-2.49-0.85-4.42-1.08c-1.93-0.23-4.09-0.42-6.51-0.56
		c-2.32-0.13-4.71-0.29-7.16-0.56s-4.84-0.69-7.16-1.28c-2.29-0.59-4.38-1.47-6.28-2.65c-1.9-1.18-3.4-2.75-4.52-4.74
		c-1.14-1.96-1.7-4.45-1.7-7.46c0-2.98,1.01-5.79,3.04-8.41s4.88-4.71,8.57-6.31c3.73-1.6,8.11-2.42,13.22-2.42
		c3.89,0,7.39,0.43,10.44,1.28c3.04,0.88,5.72,2,7.98,3.4c2.29,1.38,4.35,3.08,6.25,5.07l-8.18,8.18c-1.5-1.37-2.98-2.49-4.42-3.4
		c-1.41-0.92-3.04-1.67-4.94-2.22c-1.9-0.59-4.19-0.85-6.94-0.85c-3.47,0-6.58,0.62-9.26,1.9c-2.72,1.28-4.06,2.55-4.06,3.79
		c0,1.11,0.59,2,1.73,2.62c1.18,0.62,2.85,1.11,4.97,1.44s4.51,0.59,7.13,0.82c2.88,0.26,5.82,0.59,8.77,1.05
		c2.98,0.46,5.72,1.18,8.28,2.19c2.55,1.01,4.64,2.52,6.28,4.48c1.63,1.96,2.42,4.58,2.42,7.88c0,3.24-1.05,6.25-3.14,9.06
		c-2.13,2.81-5.14,5.07-9.09,6.8c-3.96,1.7-8.7,2.55-14.23,2.55C902.5,305.29,898.84,304.8,895.47,303.86z"/>
	<path d="M1008.45,303.86c-3.37-0.95-6.35-2.16-8.9-3.7c-2.58-1.54-4.78-3.37-6.61-5.5l8.05-8.87c1.18,1.31,2.62,2.52,4.29,3.7
		c1.67,1.18,3.7,2.19,6.08,3.08c2.36,0.88,5.04,1.34,8.02,1.34c2.81,0,5.33-0.43,7.56-1.28c2.19-0.82,3.93-1.77,5.14-2.88
		s1.83-2.06,1.83-2.88c0-0.95-0.52-1.67-1.54-2.16c-1.01-0.49-2.49-0.85-4.42-1.08c-1.93-0.23-4.09-0.42-6.51-0.56
		c-2.32-0.13-4.71-0.29-7.16-0.56s-4.84-0.69-7.16-1.28c-2.29-0.59-4.38-1.47-6.28-2.65c-1.9-1.18-3.4-2.75-4.52-4.74
		c-1.14-1.96-1.7-4.45-1.7-7.46c0-2.98,1.01-5.79,3.04-8.41s4.88-4.71,8.57-6.31c3.73-1.6,8.11-2.42,13.22-2.42
		c3.89,0,7.39,0.43,10.44,1.28c3.04,0.88,5.72,2,7.98,3.4c2.29,1.38,4.35,3.08,6.25,5.07l-8.18,8.18c-1.5-1.37-2.98-2.49-4.42-3.4
		c-1.41-0.92-3.04-1.67-4.94-2.22c-1.9-0.59-4.19-0.85-6.94-0.85c-3.47,0-6.58,0.62-9.26,1.9c-2.72,1.28-4.06,2.55-4.06,3.79
		c0,1.11,0.59,2,1.73,2.62c1.18,0.62,2.85,1.11,4.97,1.44s4.51,0.59,7.13,0.82c2.88,0.26,5.82,0.59,8.77,1.05
		c2.98,0.46,5.72,1.18,8.28,2.19c2.55,1.01,4.64,2.52,6.28,4.48c1.63,1.96,2.42,4.58,2.42,7.88c0,3.24-1.05,6.25-3.14,9.06
		c-2.13,2.81-5.14,5.07-9.09,6.8c-3.96,1.7-8.7,2.55-14.23,2.55C1015.49,305.29,1011.82,304.8,1008.45,303.86z"/>
	<path d="M1095.44,303.86v-26.3l-26.86-26.86h16.26l17.01,16.32l17.01-16.32h16.23l-26.83,26.86v26.3H1095.44z"/>
	<path d="M1173.23,303.86c-3.37-0.95-6.35-2.16-8.9-3.7c-2.58-1.54-4.78-3.37-6.61-5.5l8.05-8.87c1.18,1.31,2.62,2.52,4.29,3.7
		c1.67,1.18,3.7,2.19,6.09,3.08c2.36,0.88,5.04,1.34,8.01,1.34c2.81,0,5.33-0.43,7.56-1.28c2.19-0.82,3.93-1.77,5.14-2.88
		s1.83-2.06,1.83-2.88c0-0.95-0.52-1.67-1.54-2.16c-1.01-0.49-2.49-0.85-4.42-1.08c-1.93-0.23-4.09-0.42-6.51-0.56
		c-2.32-0.13-4.71-0.29-7.17-0.56s-4.84-0.69-7.17-1.28c-2.29-0.59-4.38-1.47-6.28-2.65c-1.9-1.18-3.4-2.75-4.51-4.74
		c-1.15-1.96-1.7-4.45-1.7-7.46c0-2.98,1.01-5.79,3.04-8.41s4.87-4.71,8.57-6.31c3.73-1.6,8.11-2.42,13.22-2.42
		c3.89,0,7.39,0.43,10.44,1.28c3.04,0.88,5.73,2,7.98,3.4c2.29,1.38,4.35,3.08,6.25,5.07l-8.18,8.18c-1.5-1.37-2.98-2.49-4.42-3.4
		c-1.41-0.92-3.04-1.67-4.94-2.22c-1.9-0.59-4.19-0.85-6.94-0.85c-3.47,0-6.58,0.62-9.26,1.9c-2.71,1.28-4.06,2.55-4.06,3.79
		c0,1.11,0.59,2,1.73,2.62c1.18,0.62,2.85,1.11,4.97,1.44s4.51,0.59,7.13,0.82c2.88,0.26,5.82,0.59,8.77,1.05
		c2.98,0.46,5.73,1.18,8.28,2.19c2.55,1.01,4.65,2.52,6.28,4.48c1.64,1.96,2.42,4.58,2.42,7.88c0,3.24-1.05,6.25-3.14,9.06
		c-2.13,2.81-5.14,5.07-9.1,6.8c-3.96,1.7-8.7,2.55-14.23,2.55C1180.27,305.29,1176.6,304.8,1173.23,303.86z"/>
	<path d="M1256.39,303.86v-41.78h-23.03v-11.38h58.92v11.38h-23.06v41.78H1256.39z"/>
	<path d="M1314.92,250.69h47.4v11.38h-47.4V250.69z M1356.56,271.6v11.38h-41.65V271.6H1356.56z M1362.32,292.47v11.38h-47.4v-11.38
		H1362.32z"/>
	<path d="M1436.81,303.86v-29.54l-13.35,23.78h-12.33l-13.35-23.78v29.54h-12.82v-53.16h14l18.32,34.51l18.35-34.51h14v53.16
		H1436.81z"/>
</g>
</svg>
